PathFileType	4	(X/Y/Z)	Patient4_TMGait_0pt4_02_left_27.trc.trc
DataRate	CameraRate	NumFrames	NumMarkers	Units	OrigDataRate	OrigDataStartFrame	OrigNumFrames
74.468085106383	74.468085106383	6	33	mm	74.468085106383	71	       141
Frame#	Time	Sacral			L.Shoulder			Chest			R.Shoulder			Neck			R.ASIS			L.ASIS			R.Thigh.Superior			R.Thigh.Lateral			R.Thigh.Inferior			R.Patella			L.Thigh.Superior			L.Thigh.Lateral			L.Thigh.Inferior			L.Patella			L.Shank.Superior			L.Shank.Lateral			L.Shank.Inferior			R.Shank.Superior			R.Shank.Lateral			R.Shank.Inferior			R.Heel			R.Midfoot.Superior			R.Midfoot.Lateral			R.Toe			L.Heel			L.Midfoot.Lateral			L.Midfoot.Superior			L.Toe			L.Elbow			L.Wrist			R.Elbow			R.Wrist			
		X1	Y1	Z1	X2	Y2	Z2	X3	Y3	Z3	X4	Y4	Z4	X5	Y5	Z5	X6	Y6	Z6	X7	Y7	Z7	X8	Y8	Z8	X9	Y9	Z9	X10	Y10	Z10	X11	Y11	Z11	X12	Y12	Z12	X13	Y13	Z13	X14	Y14	Z14	X15	Y15	Z15	X16	Y16	Z16	X17	Y17	Z17	X18	Y18	Z18	X19	Y19	Z19	X20	Y20	Z20	X21	Y21	Z21	X22	Y22	Z22	X23	Y23	Z23	X24	Y24	Z24	X25	Y25	Z25	X26	Y26	Z26	X27	Y27	Z27	X28	Y28	Z28	X29	Y29	Z29	X30	Y30	Z30	X31	Y31	Z31	X32	Y32	Z32	X33	Y33	Z33	

71	37.160000000000	908.259092930439	1005.099508474799	404.213190146273	1112.885727849682	1425.792316997482	219.083390039436	1198.758508599305	1362.539575473791	391.299581807989	1100.184697774937	1442.492324267022	554.295749362792	1081.424665687156	1493.010198438701	371.624122649170	1129.747777213295	941.876941377068	537.329088364696	1132.341153319715	960.933983543266	261.563011817699	1193.585156693077	756.335469525396	516.993991559857	1137.837711600927	642.809700981441	596.228162683961	1224.716727328703	595.136726213064	519.295922501990	1251.263005377308	515.712722320583	538.283794257527	1143.987535878959	736.545544387841	292.598352815715	1036.112389029815	635.410445584244	225.377536287014	1099.771778309185	546.005850303939	291.514057232419	1087.133687314105	479.745951797234	300.395861392648	1056.287923164440	411.609239749772	291.265820069345	957.690141883016	304.569695214834	238.784842252712	998.243358315047	189.719526692295	312.241686027930	1234.686496661907	430.178745180336	552.883649186957	1180.117709187704	321.309247033999	622.729463384166	1247.611869220313	231.745217572830	574.538011517647	1152.418691910189	48.725441279467	556.728555726469	1319.030255681582	115.499790755984	590.894784405787	1238.276651000679	45.376197506109	628.161238800093	1442.344509563696	73.981262317490	613.586167369160	862.745842227824	39.537858697033	357.679297800429	934.651224067635	35.397216715849	275.385273411325	1019.100795891800	95.387575673268	301.313740412946	1146.928455268466	41.853912295274	269.896146708712	1118.172705193035	1086.387742484178	74.977991799618	1356.511160283894	983.885937870791	76.060996535760	967.483935084585	1132.825388801226	687.647616284840	975.622192863632	874.295046004461	726.791725280669	
72	37.173428571429	909.755756763788	1003.558419303183	406.714967865107	1112.375921934038	1425.024973055155	222.199270661790	1198.506699689142	1362.201689172237	394.451955038730	1099.363300406827	1441.539413366291	557.432744263002	1080.709062250887	1492.070733975228	374.729146401649	1131.354967383469	940.486540104968	539.853551955142	1134.241679895393	960.406287934825	264.102846496536	1195.223637490220	754.429074616784	519.504619291293	1137.241287705709	640.127310197139	596.500483889299	1225.145557234983	593.172712063383	520.500283170526	1250.600465257953	513.183777705504	538.403000107744	1144.023800587853	735.317157060830	294.253390915459	1034.735573221586	635.279184813872	226.841286089518	1097.370753325950	545.134094380625	292.695766328059	1084.203156010508	478.915509465228	301.396660857418	1052.861368979974	411.092002692961	292.171765076385	953.559212162987	304.851612688008	239.413605536055	993.467591293221	189.516988405032	312.518152744042	1232.856104107653	426.814579636177	552.391263193709	1175.979862937772	318.396710782057	620.974892685940	1242.267088827529	228.128766711806	572.749861587445	1144.229994146385	47.034359210244	553.950333366834	1311.298224912777	111.810583251512	588.488235760151	1229.643496820681	43.155656769342	625.907009675700	1434.152149883319	69.107068986436	612.011155025278	857.335877467665	39.554870981957	357.638021086746	929.236162501583	35.386255931553	275.376298596490	1013.699874232749	95.361263536094	301.361847185061	1141.505650196359	41.769087351148	269.903476447648	1119.808841439252	1085.550368836002	78.393623108601	1359.949182291166	987.743573734477	78.544210583581	966.347660675151	1131.438761910364	688.863015511339	974.809745706872	872.584176073362	726.421536718759	
73	37.186857142857	911.326568738349	1002.018476706536	409.392670002961	1111.845208692672	1424.283464252608	225.510355624685	1198.298808828277	1361.886365932625	397.769235914068	1098.601747661159	1440.536161085871	560.778547158572	1080.011129234480	1491.143605013287	378.062929739776	1133.158418860931	939.190901167279	542.470120826231	1136.212008457543	959.843975070425	266.760598631888	1197.162605194546	752.645570324754	522.023344595480	1137.012152422575	637.652878832560	596.720046797113	1225.906612809554	591.456368339638	521.587363819285	1250.252706546709	510.707545236973	538.392516480600	1144.291762701275	734.064286895258	295.905377683431	1033.594182208442	635.103665802871	228.469245690167	1095.342270370701	544.236318927285	293.963007998182	1081.706133933311	477.983433253111	302.499529382772	1049.761605547558	410.494484446223	293.192220372700	949.622951981971	305.179910341043	240.173264278104	988.796557262960	189.292925643775	312.846906794574	1231.214050481708	423.488727349639	551.867073195077	1171.930559427634	315.658728039277	619.352138844617	1236.690669033451	224.523352573873	570.975932971103	1135.337892920540	45.558773495846	551.515111129982	1302.998910008442	108.198649685179	586.027957201691	1220.419692641598	41.181550962770	623.887038209605	1425.421104878137	64.189196748036	610.311313492761	851.931645629680	39.592251082848	357.598032722202	923.832260834214	35.391137258039	275.381322399217	1008.316959892456	95.350721528828	301.417925953964	1136.092797479092	41.667338029685	269.900350560923	1121.195538335986	1084.675977039373	82.065844157927	1362.852316197480	991.042229766732	81.152572360580	966.003468678594	1129.636927512635	690.331402091780	975.318349333012	870.443394455701	726.076541212159	
74	37.200285714286	912.940823201295	1000.546817956437	412.202932657166	1111.355194116620	1423.616590745944	228.997712181653	1198.160533981371	1361.615616381019	401.240789472242	1097.929147014772	1439.528575161746	564.311345434127	1079.369851942643	1490.279661692855	381.605554630419	1135.092868435858	938.064442311409	545.181361544713	1138.234508207780	959.274869070883	269.527479511799	1199.298456475947	751.063875308868	524.519449095417	1137.181996701532	635.520502914404	597.004351069705	1226.934152635378	590.060489064240	522.585625135829	1250.188762191181	508.404462802998	538.355177490306	1144.793035934979	732.826025137833	297.597786989762	1032.745518252776	634.892496068384	230.275784548588	1093.751808007077	543.330809996533	295.351750902034	1079.712248573529	476.951972140769	303.725346493325	1047.047884865066	409.825088383896	294.337233351999	945.924635832652	305.576713161268	241.077712021723	984.251159598505	189.059349604135	313.229706733599	1229.845510616493	420.389063177101	551.436806570022	1168.263970879470	313.222696826921	618.047304980040	1231.271099603354	221.152141161971	569.367338929882	1126.398700915389	44.339746536698	549.560182452185	1294.697623049121	104.944311985493	583.703937648001	1211.267539093539	39.564166005869	622.224137470946	1416.760072532427	59.662456625604	608.632868346969	846.537636061091	39.686349256047	357.557464914683	918.448540150517	35.425758465747	275.402559363687	1002.969301311160	95.362125439291	301.477406794111	1130.700411443143	41.540251194360	269.883519141680	1122.315047292071	1083.802973025209	85.980234462203	1365.206122868391	993.742081331835	83.884724517393	966.445741882249	1127.496245063329	692.069706352973	977.147232010083	867.965277127184	725.827579526641	
75	37.213714285714	914.573488349646	999.207212960274	415.111191757624	1110.963361650285	1423.078091843042	232.635901190091	1198.110634056233	1361.415920177708	404.849805363806	1097.367511502194	1438.570612873445	568.000472885355	1078.815988881423	1489.531494275776	385.327647535652	1137.088413604541	937.177673775874	547.999189754047	1140.297622118393	958.737108380308	272.393742914155	1201.547761785737	749.776835270915	526.968508396683	1137.795186884729	633.843728826018	597.470280597300	1228.184225910549	589.044386037740	523.539712728598	1250.390114564229	506.378628095612	538.413544432187	1145.520474235778	731.649951801851	299.385897219251	1032.249199783762	634.658720152635	232.272602203607	1092.671654969354	542.441635882039	296.891213562214	1078.298280070521	475.828649486080	305.080245740125	1044.783282599880	409.098535502646	295.604721229453	942.510894506839	306.071412518159	242.134059825643	979.858560935569	188.836587682902	313.660501729953	1228.810617047195	417.666851920720	551.212933078496	1165.191971676499	311.192110040552	617.206659316421	1226.287378203518	218.193253147316	568.045597043037	1117.897740334738	43.409112428043	548.145396933750	1286.809111370457	102.247299573883	581.688667419787	1202.658379824638	38.359069023754	620.985663304969	1408.599780933819	55.823636941820	607.123968120081	841.160868055535	39.889115657110	357.512575367414	913.095449624464	35.508839171950	275.439840158009	997.680636714095	95.402030988011	301.530251282976	1125.340438961742	41.380118665601	269.849440622738	1123.152156584634	1082.977555680133	90.121691974872	1366.996377431010	995.806829715536	86.743900005784	967.655373869977	1125.107920133360	694.081293508000	980.294997248115	865.264498100690	725.738987754971	
76	37.227142857143	916.207661190265	998.052197705506	418.098294023788	1110.715179058757	1422.718183598000	236.394309703974	1198.158498731743	1361.314365319837	408.573638572236	1096.928980698088	1437.718309304497	571.808072103778	1078.367430196912	1488.945643666478	389.191337398670	1139.079926004037	936.585353910046	550.944689080408	1142.397510031129	958.277220912730	275.350454893718	1203.848340366063	748.866237751465	529.360846819602	1138.886665157172	632.691929465177	598.221611859438	1229.622309919783	588.431939632199	524.508391441189	1250.830960764099	504.696107939782	538.690340355356	1146.458445225045	730.587037255743	301.327384580235	1032.160981196008	634.418152706999	234.465837996251	1092.177647331213	541.595818073752	298.596099152460	1077.545317701248	474.625145528010	306.548783168566	1043.031236140046	408.334273435003	296.976948777195	939.429605893534	306.699397144415	243.339607011308	975.652657321543	188.653360642955	314.123135092159	1228.122754856144	415.411837798314	551.277454428566	1162.810131604417	309.622822630110	616.913219119080	1221.880878076653	215.753384695513	567.084469674514	1110.117420353543	42.775214028731	547.257375024065	1279.570611665969	100.205570254801	580.103187034645	1194.848953093446	37.564323235005	620.179633728394	1401.172760453166	52.812111335191	605.898870557926	835.811854467504	40.268414943597	357.457458909572	907.784203369159	35.664568555417	275.489597373095	992.480846650209	95.476845912455	301.560103871196	1120.024534241197	41.181342860225	269.794822987646	1123.695804347868	1082.248944834860	94.471625372554	1368.211397222380	997.204974160537	89.737620185319	969.593529411833	1122.573107413104	696.357946348784	984.759203413818	862.473666597079	725.866746937604	
